<?xml version="1.0" encoding="utf-8"?>
<svg version="1.1" xmlns="http://www.w3.org/2000/svg" width="16" height="16" viewBox="0 0 16 16">
<path fill="#AFB1B3" d="M5.1,8c0-0.5,0.1-1,0.3-1.5H1v3h4.4C5.2,9,5.1,8.5,5.1,8z"/>
<path fill="#AFB1B3" d="M10.1,3c0.3,0,0.6,0,0.9,0.1V2.5H1v3h4.9C6.7,4,8.3,3,10.1,3z"/>
<path fill="#AFB1B3" d="M10.1,13c-1.8,0-3.4-1-4.3-2.5H1v3h10v-0.6C10.7,12.9,10.4,13,10.1,13z"/>
<path fill="#EDA200" d="M10.1,3c-2.8,0-5,2.2-5,5s2.2,5,5,5s5-2.2,5-5S12.7,3,10.1,3z M9.7,12.2c-0.8,0-1.6-0.2-2-0.5L8,10.8
	c0.5,0.3,1.1,0.5,1.8,0.5c1,0,1.7-0.6,1.7-1.4c0-0.7-0.4-1.2-1.5-1.6C8.7,8,7.9,7.3,7.9,6.2c0-1.2,1-2.2,2.6-2.2
	c0.8,0,1.4,0.2,1.8,0.4l-0.3,0.8c-0.3-0.1-0.8-0.4-1.5-0.4c-1.1,0-1.5,0.6-1.5,1.2c0,0.7,0.5,1.1,1.6,1.5c1.3,0.5,2,1.2,2,2.3
	C12.5,11.1,11.6,12.2,9.7,12.2z"/>
</svg>
