<?xml version="1.0" encoding="utf-8"?>
<svg version="1.1" xmlns="http://www.w3.org/2000/svg" x="0px" y="0px"
     viewBox="0 0 147.6 139.8">
    <g>

        <linearGradient id="grad1" gradientUnits="userSpaceOnUse" x1="-2.6501" y1="96.0972" x2="88.4286" y2="53.6266"
                        gradientTransform="matrix(1 0 0 -1 0 139.8898)">
            <stop offset="0" style="stop-color:#00D497"/>
            <stop offset="0.134" style="stop-color:#00D29E"/>
            <stop offset="0.3257" style="stop-color:#01CBB1"/>
            <stop offset="0.5523" style="stop-color:#02BFD0"/>
            <stop offset="0.8038" style="stop-color:#04B0FA"/>
            <stop offset="0.8286" style="stop-color:#04AEFF"/>
            <stop offset="0.8367" style="stop-color:#04BAFF"/>
            <stop offset="0.8575" style="stop-color:#04D3FF"/>
            <stop offset="0.8807" style="stop-color:#04E7FF"/>
            <stop offset="0.9074" style="stop-color:#04F5FF"/>
            <stop offset="0.9405" style="stop-color:#04FDFF"/>
            <stop offset="1" style="stop-color:#04FFFF"/>
        </linearGradient>
        <path fill="url('#grad1')"
              d="M105.3,8.1c-0.4-0.2-7.9,11-12.1,17.7c-1.9,3-3.9,6.1-7.7,8.5c-3.5,2.2-7.1,2.9-9.8,3c-0.5,0-0.9,0-1.3,0h-0.5
		c-2.6,0-7-0.4-11.1-3s-6.1-6-7.7-8.5C48.2,14.5,43.9,7.4,37.9,3.6c-6.5-4-16.8-5.3-25.1-0.4C2.3,9.5,1.1,21.8,1,23.1v94.3
		c0,12.3,10,22.2,22.3,22.2s22.3-10,22.3-22.2c0-9.3,0-18.6,0-27.9c0,0,5.2-3.3,8.6-5.9C93.4,54.5,106.1,8.5,105.3,8.1z"/>

        <linearGradient id="grad2" gradientUnits="userSpaceOnUse" x1="77.1291" y1="95.2279" x2="166.9948" y2="43.3439"
                        gradientTransform="matrix(1 0 0 -1 0 139.8898)">
            <stop offset="0" style="stop-color:#3333A9"/>
            <stop offset="1.268971e-02" style="stop-color:#3733B1"/>
            <stop offset="7.666038e-02" style="stop-color:#4834D3"/>
            <stop offset="0.1374" style="stop-color:#5435EB"/>
            <stop offset="0.1932" style="stop-color:#5B36FA"/>
            <stop offset="0.2392" style="stop-color:#5E36FF"/>
            <stop offset="0.3869" style="stop-color:#8232FF"/>
            <stop offset="0.5662" style="stop-color:#A62EFF"/>
            <stop offset="0.7338" style="stop-color:#C02BFF"/>
            <stop offset="0.8834" style="stop-color:#D02AFF"/>
            <stop offset="1" style="stop-color:#D629FF"/>
        </linearGradient>
        <path fill="url('#grad2')"
              d="M71.7,114.3c1.9,0.3,5.1,0.5,8.8-0.6c4.4-1.3,7.1-3.7,8.7-5.1c2.5-2.3,3.5-3.9,8-10.8c2.4-3.6,4.4-6.5,5.6-8.3
		c0,9.3,0,18.6,0,27.9v0.5c0.3,12.1,10.1,21.8,22.2,21.8c12.3,0,22.3-10,22.3-22.2v-0.9V23.1c-0.1-1.3-1.3-13.6-11.8-19.8
		c-8.5-5.2-18.5-3.7-25,0.3C108,5.2,106.2,7,105,8.3c-3.4,12.2-10.5,31.5-26,50.9C67.5,73.7,45.5,89.5,45.5,89.5
		c1.2,1.8,3.2,4.7,5.6,8.3c4.6,6.9,5.5,8.5,8,10.8c1.6,1.4,4.3,3.8,8.7,5.1c3.7,1.1,6.9,0.9,8.8,0.6"/>
    </g>
</svg>
