<svg xmlns="http://www.w3.org/2000/svg" width="13" height="13" viewBox="0 0 13 13">
    <path fill="#59A869" fill-opacity=".7"
          d="M6.9,9.8c0-1.4,1.2-2.6,2.6-2.6c0.8,0,1.4,0.3,1.9,0.9h0.1V6.7h-1.3V5.8c0-0.2,0-0.3,0-0.4h1.4V4H9.7
		C9.3,3.4,8.8,2.9,8.1,2.6l1.2-1.2l-1-1L6.6,2.2c0,0-0.1,0-0.1,0c0,0,0,0-0.1,0L4.6,0.4l-1,1l1.3,1.3C4.3,2.9,3.8,3.4,3.4,4H1.5v1.3
		H3c0,0.1,0,0.3,0,0.4v0.9H1.5V8h1.4v0.4C2.9,8.8,3,9.1,3,9.4H1.5v1.3h2.2c0.7,0.8,1.7,1.3,2.8,1.3c0.5,0,0.9-0.1,1.3-0.3
		C7.3,11.3,6.9,10.6,6.9,9.8z"/>
    <path fill="#59A869" fill-opacity=".7"
          d="M11.6,9.8c0,1.2-0.9,2.1-2.1,2.1s-2.1-0.9-2.1-2.1s0.9-2.1,2.1-2.1S11.6,8.6,11.6,9.8z"/>
</svg>
